<?xml version="1.0" encoding="UTF-8" standalone="no"?>
<!-- Created with Inkscape (http://www.inkscape.org/) -->

<svg
        xmlns:dc="http://purl.org/dc/elements/1.1/"
        xmlns:cc="http://creativecommons.org/ns#"
        xmlns:rdf="http://www.w3.org/1999/02/22-rdf-syntax-ns#"
        xmlns="http://www.w3.org/2000/svg"
        xmlns:sodipodi="http://sodipodi.sourceforge.net/DTD/sodipodi-0.dtd"
        xmlns:inkscape="http://www.inkscape.org/namespaces/inkscape"
        width="390.452"
        height="390.57501"
        viewBox="0 0 103.30709 103.33964"
        version="1.1"
        id="svg8"
        inkscape:version="0.92.3 (2405546, 2018-03-11)"
        sodipodi:docname="cippo_branding_mono.svg">
    <defs
            id="defs2">
        <clipPath
                clipPathUnits="userSpaceOnUse"
                id="clipPath850">
            <path
                    style="fill:none;stroke:#000000;stroke-width:0.26458332px;stroke-linecap:butt;stroke-linejoin:miter;stroke-opacity:1"
                    d="m 95.25,173.02379 c 2.645831,-1.88988 36.09672,-18.70982 36.09672,-18.70982 0,0 34.39584,2.45684 34.39584,3.77976 0,1.32292 6.42559,4.53572 8.31547,7.37054 1.88988,2.83482 8.69346,9.82738 8.69346,9.82738 0,0 -13.98512,12.47321 -14.74108,13.04018 -0.75595,0.56696 -4.91369,4.91369 -6.99255,5.10267 -2.07887,0.18899 -30.80506,4.34673 -32.12798,5.29167 -1.32292,0.94494 -10.77232,11.1503 -10.58333,11.90625 0.18898,0.75595 6.42559,16.06399 6.42559,16.06399 0,0 5.10268,7.9375 10.96131,9.63839 5.85863,1.70089 25.32441,0.56697 26.08036,-0.37797 0.75595,-0.94494 8.50446,-6.80358 8.31547,-7.74852 -0.18898,-0.94494 2.26786,-12.47321 1.51191,-14.36309 -0.75595,-1.88988 -4.91369,-10.77232 -4.91369,-10.77232 l 9.26041,-17.19792 16.81995,-5.48065 16.81994,40.06547 c 0,0 -13.41816,31.93899 -14.93006,33.82887 -1.51191,1.88988 -15.875,21.16668 -20.03274,21.73362 -4.15774,0.56698 -25.32441,3.5908 -36.4747,3.21281 -11.1503,-0.37798 -35.34078,-3.02381 -41.19941,-4.15774 -5.858629,-1.13392 -19.087796,-6.99257 -19.654758,-12.85119 -0.566965,-5.85863 1.511903,-4.7247 2.267857,-33.63988 0.755952,-28.91518 0,-37.98661 3.96875,-45.54613 C 87.501489,175.48064 95.25,173.02379 95.25,173.02379 Z"
                    id="path852"
                    inkscape:connector-curvature="0"/>
        </clipPath>
        <clipPath
                clipPathUnits="userSpaceOnUse"
                id="clipPath858">
            <path
                    style="fill:none;stroke:#000000;stroke-width:0.26458332px;stroke-linecap:butt;stroke-linejoin:miter;stroke-opacity:1"
                    d="m 70.303573,215.92409 20.788688,-48.38095 34.206849,-6.4256 c 0,0 15.49702,-3.96875 18.33184,-3.96875 2.83482,0 10.58333,1.88988 15.875,4.53571 5.29167,2.64584 15.49702,12.09524 15.49702,12.09524 l 1.7009,9.44941 -13.41816,8.12649 -7.9375,3.96875 c 0,0 -2.83482,-2.64584 -14.36309,-1.13393 -11.52828,1.5119 -24.00149,10.58333 -24.37947,11.33928 -0.37797,0.75595 -3.59077,2.64584 -3.59077,6.23661 0,3.59077 -5.48066,10.39434 -2.07887,15.11905 3.40179,4.7247 4.53571,6.42559 8.69345,8.69345 4.15774,2.26786 18.33185,3.59077 20.78869,3.59077 2.45685,0 6.61459,-1.32291 11.1503,-3.59077 4.53571,-2.26786 10.96131,-10.77232 11.71726,-12.6622 0.75595,-1.88988 0.56697,-9.26042 0,-11.90625 -0.56696,-2.64584 -3.59077,-3.77976 -3.59077,-7.18155 0,-3.40179 0.75595,-5.85863 3.40178,-8.31548 2.64584,-2.45684 0.94494,-2.45684 2.64584,-2.45684 1.70089,0 5.48065,0 6.80357,-2.26786 1.32292,-2.26786 -1.19391,-4.47813 3.59077,-4.53571 4.78469,-0.0576 8.88244,-6.61459 8.88244,-6.61459 0,0 7.55953,10.39435 8.50447,13.04018 0.94494,2.64584 8.88244,29.86012 8.88244,30.61607 0,0.75596 -18.33185,51.97173 -24.56845,53.67263 -6.23661,1.70088 -84.85566,3.59077 -89.958335,1.32292 -5.10268,-2.26788 -17.575892,-62.36608 -17.575892,-62.36608 z"
                    id="path860"
                    inkscape:connector-curvature="0"/>
        </clipPath>
    </defs>
    <sodipodi:namedview
            id="base"
            pagecolor="#ffffff"
            bordercolor="#666666"
            borderopacity="1.0"
            inkscape:pageopacity="0.0"
            inkscape:pageshadow="2"
            inkscape:zoom="0.35"
            inkscape:cx="9.2588717"
            inkscape:cy="603.19144"
            inkscape:document-units="mm"
            inkscape:current-layer="layer1"
            showgrid="false"
            units="px"
            inkscape:window-width="1920"
            inkscape:window-height="1017"
            inkscape:window-x="-8"
            inkscape:window-y="-8"
            inkscape:window-maximized="1"/>
    <metadata
            id="metadata5">
        <rdf:RDF>
            <cc:Work
                    rdf:about="">
                <dc:format>image/svg+xml</dc:format>
                <dc:type
                        rdf:resource="http://purl.org/dc/dcmitype/StillImage"/>
                <dc:title></dc:title>
            </cc:Work>
        </rdf:RDF>
    </metadata>
    <g
            inkscape:label="Layer 1"
            inkscape:groupmode="layer"
            id="layer1"
            transform="translate(0,-193.66035)">
        <path
                style="fill:#737373;fill-opacity:1;stroke-width:0.08466666"
                d="m 88.172607,241.8227 c 0.03104,-29.77373 0.0022,-27.92237 0.488837,-31.43521 1.75463,-12.66725 8.153543,-24.22236 17.975946,-32.46083 11.31929,-9.49397 26.09843,-13.66926 40.77214,-11.51864 8.15948,1.19588 16.01153,4.40625 22.77021,9.30975 l 0.96239,0.69822 -6.88394,6.88433 c -3.78617,3.78638 -6.90529,6.87258 -6.93139,6.85823 -0.0261,-0.0144 -0.44501,-0.26482 -0.93092,-0.55658 -3.14587,-1.88892 -7.01656,-3.3445 -10.67353,-4.0138 -2.18278,-0.3995 -3.43403,-0.50715 -5.88433,-0.50624 -3.88713,0.001 -6.71523,0.45218 -10.287,1.63958 -9.08944,3.02171 -16.38549,9.93762 -19.92186,18.88392 -1.07687,2.72425 -1.74976,5.46556 -2.10905,8.59206 -0.143,1.24445 -0.14122,5.30044 0.003,6.604 0.43528,3.93686 1.3957,7.31287 3.06411,10.7707 4.71918,9.78071 13.96941,16.56139 24.63655,18.0593 3.44702,0.48404 6.93619,0.42519 10.32933,-0.17423 8.63721,-1.52582 16.36955,-6.60927 21.31953,-14.01602 5.43046,-8.12571 6.87653,-18.5411 3.86153,-27.8128 -0.86316,-2.65438 -1.86559,-4.8217 -3.40476,-7.36134 l -0.18125,-0.29905 6.88673,-6.88633 6.88671,-6.88634 0.69768,0.96239 c 5.17978,7.1452 8.44104,15.44305 9.47925,24.11872 0.4828,4.03453 0.46888,8.84878 -0.037,12.8052 -1.76065,13.76869 -9.02288,26.27175 -20.13079,34.65824 -4.31415,3.2572 -9.2841,5.90276 -14.30242,7.61336 -4.22237,1.43929 -7.79151,2.1813 -12.89551,2.68095 -0.74702,0.0731 -8.23992,0.10743 -28.3023,0.12957 l -27.286308,0.0301 0.02853,-27.37121 z m 34.266413,-22.07955 v -5.50333 h 2.37067 2.37066 v -1.397 -1.397 h -2.62466 -2.62467 v -0.67733 -0.67734 h 7.874 7.874 v 0.67734 0.67733 h -2.75167 -2.75167 v 1.397 1.397 h 2.49767 2.49767 v 5.50333 5.50334 h -7.366 -7.366 z m 13.208,2.58674 v -1.56193 l -0.25046,0.0873 c -0.14818,0.0517 -0.85119,0.0758 -1.72146,0.0591 -1.46812,-0.0282 -1.47181,-0.0287 -1.88513,-0.28446 -0.25612,-0.15846 -0.51191,-0.41426 -0.67038,-0.67039 l -0.25624,-0.41416 -0.0269,-1.9331 -0.0269,-1.93311 -1.11611,1.7e-4 -1.11611,1.7e-4 -0.14279,0.87765 c -0.40901,2.51396 -1.69168,4.01366 -4.06937,4.75794 l -0.48684,0.15238 v 1.21221 1.21221 h 5.88433 5.88434 v -1.56194 z m -10.55521,-2.85513 c 0.63794,-0.32178 1.16521,-0.85456 1.49783,-1.51348 0.27762,-0.54996 0.50207,-1.42389 0.50458,-1.96463 l 10e-4,-0.3175 h -1.60866 -1.60867 v 2.06023 c 0,1.13312 0.0216,2.08184 0.048,2.10826 0.0755,0.0755 0.62514,-0.10036 1.16541,-0.37288 z m 10.39144,-0.0733 c 0.1541,-0.0825 0.16377,-0.19489 0.16377,-1.905 v -1.81736 h -1.73567 -1.73567 v 1.61714 1.61713 l 0.28787,0.28787 0.28787,0.28786 h 1.28403 c 0.72321,0 1.35556,-0.0383 1.4478,-0.0876 z m -4.66223,-6.55869 v -1.397 h -1.143 -1.143 v 1.397 1.397 h 1.143 1.143 z m 11.684,9.906 v -2.49767 h 2.90254 2.90254 l 0.26494,-0.80433 0.26495,-0.80433 h -2.61716 -2.61715 v -2.02858 -2.02858 l -0.6985,-0.0246 -0.6985,-0.0246 -0.0228,-1.88383 -0.0228,-1.88383 h 3.47296 3.47295 v -0.508 -0.508 h 0.762 0.762 v 0.508 0.508 h 3.47133 3.47133 v 1.86266 1.86267 h -0.67733 -0.67733 v 2.07322 2.07322 l -2.89678,0.0223 -2.89677,0.0223 -0.23566,0.635 c -0.12961,0.34925 -0.25738,0.70167 -0.28393,0.78317 -0.0455,0.1396 0.16745,0.14816 3.68276,0.14816 h 3.73104 v 2.49767 2.49767 h -7.40833 -7.40833 z m 13.37733,0 v -1.22767 h -5.969 -5.969 v 1.22767 1.22767 h 5.969 5.969 z m -1.1193,-6.45583 -0.0237,-1.0795 -4.84717,-0.0219 -4.84716,-0.0219 v 1.10136 1.10136 h 4.87086 4.87087 z m 1.28863,-3.28084 v -0.889 h -6.13833 -6.13833 v 0.889 0.889 h 6.13833 6.13833 z"
                id="path854"
                inkscape:connector-curvature="0"
                clip-path="url(#clipPath858)"
                transform="matrix(1.0000025,0,0,1.0000025,-88.144416,27.805388)"/>
    </g>
</svg>
